# xmcd CD database file
#
# Track frame offsets:
#	183
#	11990
#	20265
#	35293
#	47395
#	61243
#	75275
#	89785
#	104703
#	118993
#	133630
#	145058
#
# Disc length: 2052 seconds
#
# Revision: 0
# Processed by: cddbd v1.5.2PL0 Copyright (c) Steve Scherf et al.
# Submitted via: CDex 1.70beta2
#
DISCID=9d08020c
DTITLE=SERGIO MENDES and BRASIL '66 - SERGIO MENDES and BRASIL '66
DYEAR=1992
DGENRE=Jazz
TTITLE0=MAIS QUE NADA
TTITLE1=ONE NOTE SAMBA
TTITLE2=FOR ME
TTITLE3=THE JOKER
TTITLE4=NIGHT AND DAY
TTITLE5=DAY TRIPPER
TTITLE6=FOLL ON THE HILL
TTITLE7=SCARBOROUGH FAIR
TTITLE8=LAIA LADAIA
TTITLE9=CONSTANT RAIN
TTITLE10=AQUA DE BEBER
TTITLE11=SO DANCE SAMBA
EXTD=YEAR: 1992
EXTT0=
EXTT1=
EXTT2=
EXTT3=
EXTT4=
EXTT5=
EXTT6=
EXTT7=
EXTT8=
EXTT9=
EXTT10=
EXTT11=
PLAYORDER=
